<svg width="202" height="202" viewBox="0 0 202 202" fill="none" xmlns="http://www.w3.org/2000/svg">
<path d="M58.243 160.857L58.2428 160.852C57.9304 154.846 59.993 148.959 63.985 144.461C67.9762 139.964 73.5758 137.218 79.5748 136.814H122.425C128.437 137.218 134.048 139.974 138.041 144.487C142.035 149 144.089 154.906 143.757 160.923H143.757V160.929V175.157C130.773 182.708 116.021 186.687 101 186.687C85.9792 186.687 71.2266 182.708 58.2429 175.157L58.243 160.857ZM43.7572 160.358V164.347C30.9218 152.807 21.8731 137.654 17.8012 120.877C13.7116 104.027 14.8346 86.3323 21.0215 70.1347C27.2085 53.937 38.1678 39.9997 52.4492 30.167C66.7306 20.3342 83.661 15.0695 101 15.0695C118.339 15.0695 135.269 20.3342 149.551 30.167C163.832 39.9997 174.792 53.937 180.978 70.1347C187.165 86.3323 188.288 104.027 184.199 120.877C180.127 137.654 171.078 152.807 158.243 164.347L158.243 160.359C158.243 160.359 158.243 160.359 158.243 160.358C158.438 150.594 154.797 141.143 148.102 134.033C141.407 126.922 132.191 122.72 122.433 122.329L122.433 122.329H122.429L79.5715 122.328L79.5676 122.329C69.8028 122.702 60.5759 126.899 53.8769 134.013C47.1781 141.127 43.5436 150.589 43.7572 160.358ZM101 0.9C81.2021 0.9 61.8488 6.77076 45.3874 17.7699C28.9261 28.769 16.096 44.4025 8.5197 62.6934C0.943372 80.9843 -1.03894 101.111 2.82344 120.529C6.68582 139.946 16.2194 157.782 30.2186 171.781C44.2179 185.781 62.054 195.314 81.4715 199.177C100.889 203.039 121.016 201.057 139.307 193.48C157.598 185.904 173.231 173.074 184.23 156.613C195.229 140.151 201.1 120.798 201.1 101C201.1 74.4518 190.554 48.991 171.781 30.2186C153.009 11.4462 127.548 0.9 101 0.9ZM100.995 36.6129C93.9121 36.6129 86.9878 38.7134 81.0982 42.6487C75.2085 46.5841 70.6181 52.1775 67.9074 58.7217C65.1967 65.2659 64.4875 72.4669 65.8694 79.4142C67.2513 86.3615 70.6623 92.743 75.671 97.7517C80.6797 102.76 87.0612 106.171 94.0085 107.553C100.956 108.935 108.157 108.226 114.701 105.515C121.245 102.805 126.839 98.2142 130.774 92.3246C134.709 86.4349 136.81 79.5106 136.81 72.4272C136.81 62.9287 133.036 53.8192 126.32 47.1027C119.604 40.3862 110.494 36.6129 100.995 36.6129ZM100.995 93.7558C96.7771 93.7558 92.6535 92.5049 89.146 90.1613C85.6385 87.8177 82.9048 84.4866 81.2905 80.5893C79.6762 76.692 79.2538 72.4036 80.0768 68.2662C80.8997 64.1289 82.9311 60.3285 85.9139 57.3456C88.8968 54.3628 92.6972 52.3314 96.8345 51.5085C100.972 50.6855 105.26 51.1079 109.158 52.7222C113.055 54.3365 116.386 57.0702 118.73 60.5777C121.073 64.0852 122.324 68.2088 122.324 72.4272C122.324 78.0839 120.077 83.5089 116.077 87.5088C112.077 91.5087 106.652 93.7558 100.995 93.7558Z" fill="#3767ED" stroke="white" stroke-width="0.2"/>
</svg>
